# xmcd CD database file
#
# Track frame offsets:
#	150
#	35680
#	57090
#	80637
#	116877
#	140477
#	172915
#	202510
#	230625
#	273362
#	305110
#
# Disc length: 4406 seconds
#
# Revision: 0
# Processed by: cddbd v1.5PL3 Copyright (c) Steve Scherf et al.
# Submitted via: CDex 1.51
#
DISCID=9811340b
DTITLE=Terumasa Hino - Here We Go Again
DYEAR=2003
DGENRE=Jazz
TTITLE0=AM PM
TTITLE1=Freesia
TTITLE2=Charles Tone
TTITLE3=Everything
TTITLE4=Quick Solution
TTITLE5=Melancholy Daddy
TTITLE6=TAKUMI
TTITLE7=Elysium
TTITLE8=Kawa-no Nagare-no Youni
TTITLE9=Authentic
TTITLE10=The Forest Giant
EXTD=YEAR: 2003
EXTT0=
EXTT1=
EXTT2=
EXTT3=
EXTT4=
EXTT5=
EXTT6=
EXTT7=
EXTT8=
EXTT9=
EXTT10=
PLAYORDER=
